<svg width="466" height="103" viewBox="0 0 466 103" fill="none" xmlns="http://www.w3.org/2000/svg">
<g clip-path="url(#clip0)">
<path d="M43.2 23.2C41.666 21.279 39.6944 19.7531 37.45 18.75C35.315 17.705 32.9766 17.1418 30.6 17.1C29.4436 17.1023 28.2894 17.2026 27.15 17.4C26.036 17.5779 24.9666 17.9683 24 18.55C23.0728 19.1127 22.2725 19.8618 21.65 20.75C20.9826 21.7734 20.6505 22.9792 20.7 24.2C20.6613 25.2508 20.9213 26.291 21.45 27.2C22.011 28.0608 22.7641 28.7796 23.65 29.3C24.7422 29.9771 25.8977 30.5464 27.1 31C28.4333 31.5 29.9333 32.0167 31.6 32.55C34 33.35 36.5 34.2333 39.1 35.2C41.6368 36.1192 44.0281 37.399 46.2 39C48.3491 40.6266 50.1511 42.6666 51.5 45C52.9838 47.7072 53.7093 50.7648 53.6 53.85C53.6924 57.4949 52.9214 61.1099 51.35 64.4C49.9162 67.2627 47.8468 69.7597 45.3 71.7C42.6973 73.6695 39.7454 75.1285 36.6 76C33.3148 76.9342 29.9154 77.4054 26.5 77.4C21.4802 77.4108 16.5 76.513 11.8 74.75C7.3443 73.1622 3.30886 70.5802 0 67.2L11.2 55.8C13.079 58.048 15.4138 59.8715 18.05 61.15C20.6568 62.5253 23.5529 63.2622 26.5 63.3C27.7444 63.3043 28.9853 63.1701 30.2 62.9C31.3211 62.6644 32.389 62.2236 33.35 61.6C34.2573 60.9938 34.9968 60.1683 35.5 59.2C36.0586 58.084 36.3333 56.8475 36.3 55.6C36.3385 54.3889 35.9881 53.1974 35.3 52.2C34.5229 51.1746 33.5552 50.3087 32.45 49.65C31.0001 48.7801 29.4571 48.0756 27.85 47.55C26.02 46.92 23.93 46.23 21.6 45.55C19.3488 44.8 17.1448 43.9151 15 42.9C12.8756 41.9308 10.918 40.6314 9.2 39.05C7.46944 37.4402 6.07582 35.5027 5.1 33.35C3.98335 30.7811 3.43746 28.0004 3.5 25.2C3.39707 21.6808 4.22496 18.1967 5.9 15.1C7.45126 12.3532 9.60529 9.99406 12.2 8.2C14.8725 6.36579 17.8533 5.02777 21 4.25C24.2351 3.42277 27.5608 3.00285 30.9 3C35.0788 3.03035 39.2218 3.77439 43.15 5.2C47.2224 6.59196 50.9662 8.80419 54.15 11.7L43.2 23.2Z" fill="#1A2D3A"/>
<path d="M94.8 75.6V48.6C94.8044 47.2609 94.7041 45.9235 94.5 44.6C94.3273 43.4218 93.9373 42.2859 93.3499 41.25C92.7969 40.3259 92.024 39.553 91.0999 39C90.0006 38.3919 88.7552 38.0978 87.5 38.15C86.2388 38.0758 84.9787 38.3103 83.8286 38.8331C82.6786 39.3558 81.6733 40.1511 80.9 41.15C79.3131 43.3399 78.5035 45.9973 78.5999 48.7V75.6H62.2V0H78.5999V32.1H78.8C80.1313 29.8987 81.9863 28.0608 84.1999 26.75C86.877 25.1226 89.9685 24.3063 93.0999 24.4C96.0533 24.3024 98.9866 24.92 101.65 26.2C103.841 27.3118 105.754 28.9008 107.25 30.85C108.706 32.8069 109.76 35.0332 110.35 37.4C110.992 39.815 111.328 42.3012 111.35 44.8V75.6H94.8Z" fill="#1A2D3A"/>
<path d="M139.5 9.89999C139.509 11.1236 139.254 12.3347 138.75 13.45C138.271 14.5185 137.592 15.4858 136.75 16.3C135.88 17.1178 134.861 17.7626 133.75 18.2C132.59 18.6662 131.35 18.9038 130.1 18.9C128.862 18.9335 127.63 18.716 126.479 18.2606C125.327 17.8051 124.28 17.1212 123.4 16.25C122.535 15.4361 121.848 14.4514 121.384 13.3584C120.919 12.2653 120.686 11.0877 120.7 9.89999C120.696 8.71428 120.934 7.54019 121.4 6.44999C121.851 5.36547 122.533 4.39272 123.4 3.59999C124.283 2.78515 125.297 2.12581 126.4 1.64999C127.567 1.14122 128.828 0.885595 130.1 0.89999C131.35 0.896134 132.59 1.13382 133.75 1.59999C134.861 2.03741 135.88 2.68219 136.75 3.49999C137.592 4.31419 138.271 5.28147 138.75 6.34999C139.254 7.46525 139.509 8.67637 139.5 9.89999ZM121.9 75.6V25.8H138.3V75.6H121.9Z" fill="#1A2D3A"/>
<path d="M212.3 32.6C215.233 29.7991 218.726 27.6519 222.55 26.3C226.381 24.9118 230.425 24.2012 234.5 24.2C238.112 24.1117 241.713 24.6358 245.15 25.75C247.877 26.682 250.298 28.3419 252.15 30.55C254.062 32.9543 255.412 35.7561 256.1 38.75C257.009 42.5992 257.446 46.545 257.4 50.5V75.6H242.4V70.3H242.1C240.726 72.4566 238.717 74.1338 236.35 75.1C233.716 76.245 230.872 76.8241 228 76.8C225.908 76.7869 223.826 76.5182 221.8 76C219.728 75.4842 217.764 74.6038 216 73.4C214.195 72.1621 212.705 70.5181 211.65 68.6C210.448 66.3238 209.862 63.7727 209.95 61.2C209.798 58.0314 210.852 54.9229 212.9 52.5C214.988 50.2155 217.594 48.4664 220.5 47.4C223.813 46.1506 227.276 45.3436 230.8 45C234.487 44.606 238.192 44.4057 241.9 44.4V43.6C241.976 42.5442 241.776 41.4867 241.32 40.5313C240.864 39.576 240.168 38.7554 239.3 38.15C237.392 36.9336 235.161 36.3235 232.9 36.4C230.567 36.3984 228.262 36.9106 226.15 37.9C224.125 38.8055 222.252 40.02 220.6 41.5L212.3 32.6ZM242.4 53.9H240.3C238.5 53.9 236.68 53.98 234.85 54.15C233.184 54.2985 231.541 54.634 229.95 55.15C228.629 55.5365 227.415 56.2207 226.4 57.15C225.93 57.6102 225.563 58.1641 225.322 58.7758C225.08 59.3875 224.971 60.0431 225 60.7C224.974 61.5468 225.2 62.3822 225.65 63.1C226.068 63.7542 226.633 64.302 227.3 64.7C228.011 65.1164 228.789 65.4042 229.6 65.55C230.423 65.7143 231.26 65.7981 232.1 65.8C235.433 65.8 237.983 64.8833 239.75 63.05C240.66 62.0437 241.363 60.8676 241.818 59.5891C242.272 58.3107 242.47 56.9551 242.4 55.6V53.9Z" fill="#1A2D3A"/>
<path d="M331.2 75.6001V48.4001C331.201 47.0611 331.101 45.724 330.9 44.4001C330.747 43.2085 330.374 42.0556 329.8 41.0001C329.278 40.0856 328.54 39.3131 327.65 38.7501C326.571 38.1371 325.34 37.8424 324.1 37.9001C322.825 37.8682 321.564 38.179 320.45 38.8001C319.416 39.3974 318.528 40.2172 317.85 41.2001C317.128 42.2461 316.602 43.4153 316.3 44.6501C315.961 45.9731 315.793 47.3343 315.8 48.7001V75.6001H299.4V47.2001C299.523 44.8148 298.931 42.4471 297.7 40.4001C297.09 39.5549 296.273 38.8808 295.327 38.443C294.382 38.0051 293.339 37.8182 292.3 37.9001C291.11 37.8535 289.929 38.1143 288.869 38.6573C287.809 39.2003 286.907 40.0072 286.25 41.0001C284.763 43.2491 284.011 45.9051 284.1 48.6001V75.6001H267.6V25.8001H283.5V32.7001H283.7C284.349 31.5841 285.12 30.5442 286 29.6001C286.935 28.5833 288.013 27.7075 289.2 27.0001C290.531 26.2028 291.96 25.581 293.45 25.1501C298.237 23.8435 303.339 24.3787 307.75 26.6501C310.269 28.1398 312.301 30.3283 313.6 32.9501C315.208 30.4022 317.402 28.2762 320 26.7501C322.902 25.1414 326.184 24.3468 329.5 24.4501C332.459 24.3543 335.396 24.9897 338.05 26.3001C340.25 27.4436 342.151 29.0878 343.6 31.1001C344.991 33.1003 346.008 35.3366 346.6 37.7001C347.235 40.0313 347.572 42.434 347.6 44.8501V75.6001H331.2Z" fill="#1A2D3A"/>
<path d="M357.3 32.6C360.233 29.7991 363.726 27.6519 367.55 26.3C371.381 24.9118 375.425 24.2012 379.5 24.2C383.112 24.1117 386.713 24.6358 390.15 25.75C392.895 26.6739 395.334 28.3344 397.2 30.55C399.112 32.9543 400.462 35.7561 401.15 38.75C402.043 42.6013 402.462 46.5471 402.4 50.5V75.6H387.4V70.3H387.1C385.726 72.4566 383.717 74.1338 381.35 75.1C378.716 76.245 375.872 76.8241 373 76.8C370.908 76.7869 368.826 76.5182 366.8 76C364.728 75.4842 362.764 74.6038 361 73.4C359.195 72.1621 357.705 70.5181 356.65 68.6C355.448 66.3238 354.862 63.7727 354.95 61.2C354.812 58.0247 355.884 54.9155 357.95 52.5C360.038 50.2155 362.645 48.4664 365.55 47.4C368.847 46.1548 372.293 45.3479 375.8 45C379.487 44.606 383.192 44.4057 386.9 44.4V43.6C386.976 42.5442 386.776 41.4867 386.32 40.5313C385.865 39.576 385.168 38.7554 384.3 38.15C382.392 36.9336 380.161 36.3235 377.9 36.4C375.567 36.3984 373.263 36.9106 371.15 37.9C369.125 38.8055 367.253 40.02 365.6 41.5L357.3 32.6ZM387.4 53.9H385.3C383.5 53.9 381.68 53.98 379.85 54.15C378.184 54.2985 376.541 54.634 374.95 55.15C373.629 55.5365 372.415 56.2207 371.4 57.15C370.93 57.6102 370.563 58.1641 370.322 58.7758C370.081 59.3875 369.971 60.0431 370 60.7C369.974 61.5468 370.2 62.3822 370.65 63.1C371.068 63.7542 371.633 64.302 372.3 64.7C373.011 65.1164 373.789 65.4042 374.6 65.55C375.423 65.7143 376.261 65.7981 377.1 65.8C380.433 65.8 382.983 64.8833 384.75 63.05C385.66 62.0437 386.363 60.8676 386.818 59.5891C387.272 58.3107 387.47 56.9551 387.4 55.6V53.9Z" fill="#1A2D3A"/>
<path d="M446.59 75.6L435.89 60.3L424.89 75.6H405.89L425.79 49.5L407.79 25.8H426.89L436.19 39.1L445.59 25.8H464.09L446.19 49.5L465.89 75.6H446.59Z" fill="#1A2D3A"/>
<path d="M177.42 23.48C170.103 23.4792 163.079 26.3584 157.867 31.4951C152.656 36.6318 149.675 43.6132 149.57 50.93C149.559 51.1031 149.559 51.2768 149.57 51.45V102.74C156.57 98.36 166.25 88.88 172.17 78.74C175.983 79.4797 179.909 79.4141 183.695 78.5472C187.481 77.6803 191.044 76.0313 194.155 73.7061C197.266 71.3809 199.857 68.4308 201.76 65.0453C203.664 61.6598 204.839 57.9136 205.209 54.0472C205.58 50.1809 205.138 46.2798 203.911 42.5944C202.685 38.9089 200.702 35.5206 198.089 32.647C195.476 29.7733 192.291 27.4777 188.738 25.9077C185.186 24.3376 181.344 23.5277 177.46 23.53L177.42 23.48ZM177.55 63.36C175.194 63.36 172.892 62.6615 170.933 61.3528C168.975 60.0441 167.448 58.184 166.547 56.0077C165.645 53.8315 165.409 51.4368 165.869 49.1265C166.328 46.8161 167.463 44.694 169.128 43.0283C170.794 41.3627 172.916 40.2284 175.226 39.7688C177.537 39.3093 179.932 39.5451 182.108 40.4466C184.284 41.348 186.144 42.8746 187.453 44.8331C188.762 46.7917 189.46 49.0944 189.46 51.45C189.46 54.6087 188.205 57.6381 185.972 59.8716C183.738 62.1052 180.709 63.36 177.55 63.36Z" fill="#FE663A"/>
</g>
<defs>
<clipPath id="clip0">
<rect width="465.89" height="102.74" fill="white"/>
</clipPath>
</defs>
</svg>
