<svg xmlns="http://www.w3.org/2000/svg" viewBox="0 0 465.89 102.74"><defs><style>.cls-1{fill:#fff;}.cls-2{fill:#fe663a;}</style></defs><title>Asset 1</title><g id="Layer_2" data-name="Layer 2"><g id="Layer_1-2" data-name="Layer 1"><path class="cls-1" d="M43.2,23.2a15.46,15.46,0,0,0-5.75-4.45A16.22,16.22,0,0,0,30.6,17.1a20.36,20.36,0,0,0-3.45.3A8.93,8.93,0,0,0,24,18.55a7.77,7.77,0,0,0-2.35,2.2,5.85,5.85,0,0,0-.95,3.45,5.56,5.56,0,0,0,.75,3,6.67,6.67,0,0,0,2.2,2.1,19.57,19.57,0,0,0,3.45,1.65q2,.75,4.5,1.55,3.6,1.2,7.5,2.65A28.09,28.09,0,0,1,46.2,39a20.23,20.23,0,0,1,5.3,5.95,17.14,17.14,0,0,1,2.1,8.85,23.11,23.11,0,0,1-2.25,10.55A21,21,0,0,1,45.3,71.7,25.92,25.92,0,0,1,36.6,76a36.62,36.62,0,0,1-10.1,1.4,41.72,41.72,0,0,1-14.7-2.65A31.11,31.11,0,0,1,0,67.2L11.2,55.8A20.66,20.66,0,0,0,18,61.15,18.58,18.58,0,0,0,26.5,63.3a17,17,0,0,0,3.7-.4,9.22,9.22,0,0,0,3.15-1.3,6.52,6.52,0,0,0,2.15-2.4,7.56,7.56,0,0,0,.8-3.6,5.71,5.71,0,0,0-1-3.4,9.81,9.81,0,0,0-2.85-2.55,23.09,23.09,0,0,0-4.6-2.1q-2.75-.95-6.25-2A59.63,59.63,0,0,1,15,42.9,22.23,22.23,0,0,1,9.15,39,17.81,17.81,0,0,1,5,33.35,19.31,19.31,0,0,1,3.5,25.2,20,20,0,0,1,5.9,15.1a20.87,20.87,0,0,1,6.3-6.9A27.07,27.07,0,0,1,21,4.25,39.9,39.9,0,0,1,30.9,3,36.8,36.8,0,0,1,43.15,5.2a31.6,31.6,0,0,1,11,6.5Z"/><path class="cls-1" d="M94.8,75.6v-27a25.62,25.62,0,0,0-.3-4,9.51,9.51,0,0,0-1.15-3.35,6.5,6.5,0,0,0-2.25-2.3,6.87,6.87,0,0,0-3.6-.85,7.77,7.77,0,0,0-6.6,3,12.18,12.18,0,0,0-2.3,7.55V75.6H62.2V0H78.6V32.1h.2a15.62,15.62,0,0,1,5.4-5.35,16.25,16.25,0,0,1,8.9-2.35,18.35,18.35,0,0,1,8.55,1.8,16.37,16.37,0,0,1,5.6,4.65,18.33,18.33,0,0,1,3.1,6.55,29.69,29.69,0,0,1,1,7.4V75.6Z"/><path class="cls-1" d="M139.5,9.9a8.47,8.47,0,0,1-.75,3.55,9.17,9.17,0,0,1-2,2.85,9.22,9.22,0,0,1-3,1.9,9.73,9.73,0,0,1-3.65.7,9.19,9.19,0,0,1-6.7-2.65,8.58,8.58,0,0,1-2.7-6.35,8.74,8.74,0,0,1,.7-3.45,8.16,8.16,0,0,1,2-2.85,10.8,10.8,0,0,1,3-2A9.06,9.06,0,0,1,130.1.9a9.76,9.76,0,0,1,3.65.7,9.23,9.23,0,0,1,3,1.9,9.17,9.17,0,0,1,2,2.85A8.48,8.48,0,0,1,139.5,9.9ZM121.9,75.6V25.8h16.4V75.6Z"/><path class="cls-1" d="M212.3,32.6a28.7,28.7,0,0,1,10.25-6.3,35.11,35.11,0,0,1,11.95-2.1,32,32,0,0,1,10.65,1.55,15.88,15.88,0,0,1,7,4.8,20.48,20.48,0,0,1,4,8.2A48.47,48.47,0,0,1,257.4,50.5V75.6h-15V70.3h-.3a12.34,12.34,0,0,1-5.75,4.8A20.45,20.45,0,0,1,228,76.8a25.58,25.58,0,0,1-6.2-.8,18.13,18.13,0,0,1-5.85-2.6,14.07,14.07,0,0,1-4.35-4.8,14.81,14.81,0,0,1-1.7-7.4,12.56,12.56,0,0,1,3-8.7,19.35,19.35,0,0,1,7.6-5.1A40.23,40.23,0,0,1,230.8,45a105.93,105.93,0,0,1,11.1-.6v-.8a6.11,6.11,0,0,0-2.6-5.45,11.22,11.22,0,0,0-6.4-1.75,15.93,15.93,0,0,0-6.75,1.5,21.52,21.52,0,0,0-5.55,3.6Zm30.1,21.3h-2.1q-2.7,0-5.45.25a22.46,22.46,0,0,0-4.9,1,9.06,9.06,0,0,0-3.55,2A4.71,4.71,0,0,0,225,60.7a4.3,4.3,0,0,0,.65,2.4,5,5,0,0,0,1.65,1.6,7,7,0,0,0,2.3.85,13.21,13.21,0,0,0,2.5.25q5,0,7.65-2.75a10.29,10.29,0,0,0,2.65-7.45Z"/><path class="cls-1" d="M331.2,75.6V48.4a26.59,26.59,0,0,0-.3-4A9.7,9.7,0,0,0,329.8,41a6.33,6.33,0,0,0-2.15-2.25,6.59,6.59,0,0,0-3.55-.85,7.14,7.14,0,0,0-3.65.9,8.11,8.11,0,0,0-2.6,2.4,10.48,10.48,0,0,0-1.55,3.45,16.17,16.17,0,0,0-.5,4V75.6H299.4V47.2a11.94,11.94,0,0,0-1.7-6.8,6.07,6.07,0,0,0-5.4-2.5,6.94,6.94,0,0,0-6.05,3.1,13,13,0,0,0-2.15,7.6v27H267.6V25.8h15.9v6.9h.2a17.49,17.49,0,0,1,2.25-3.1,14.31,14.31,0,0,1,3.25-2.65,18.22,18.22,0,0,1,4.25-1.85,18,18,0,0,1,5.15-.7,17.8,17.8,0,0,1,9.15,2.2,15.09,15.09,0,0,1,5.85,6.3,19,19,0,0,1,6.4-6.2,18.41,18.41,0,0,1,9.5-2.3A17.93,17.93,0,0,1,338,26.25,15.93,15.93,0,0,1,343.6,31a20,20,0,0,1,3,6.6,28.36,28.36,0,0,1,1,7.15V75.6Z"/><path class="cls-1" d="M357.3,32.6a28.7,28.7,0,0,1,10.25-6.3,35.11,35.11,0,0,1,11.95-2.1,32,32,0,0,1,10.65,1.55,15.88,15.88,0,0,1,7,4.8,20.48,20.48,0,0,1,4,8.2A48.47,48.47,0,0,1,402.4,50.5V75.6h-15V70.3h-.3a12.34,12.34,0,0,1-5.75,4.8A20.45,20.45,0,0,1,373,76.8a25.57,25.57,0,0,1-6.2-.8,18.13,18.13,0,0,1-5.85-2.6,14.08,14.08,0,0,1-4.35-4.8,14.8,14.8,0,0,1-1.7-7.4,12.56,12.56,0,0,1,3-8.7,19.35,19.35,0,0,1,7.6-5.1A40.23,40.23,0,0,1,375.8,45a105.93,105.93,0,0,1,11.1-.6v-.8a6.11,6.11,0,0,0-2.6-5.45,11.22,11.22,0,0,0-6.4-1.75,15.93,15.93,0,0,0-6.75,1.5,21.51,21.51,0,0,0-5.55,3.6Zm30.1,21.3h-2.1q-2.7,0-5.45.25a22.46,22.46,0,0,0-4.9,1,9.06,9.06,0,0,0-3.55,2A4.71,4.71,0,0,0,370,60.7a4.29,4.29,0,0,0,.65,2.4,5,5,0,0,0,1.65,1.6,7,7,0,0,0,2.3.85,13.2,13.2,0,0,0,2.5.25q5,0,7.65-2.75a10.29,10.29,0,0,0,2.65-7.45Z"/><path class="cls-1" d="M446.59,75.6l-10.7-15.3-11,15.3h-19l19.9-26.1-18-23.7h19.1l9.3,13.3,9.4-13.3h18.5l-17.9,23.7,19.7,26.1Z"/><path class="cls-2" d="M177.42,23.48a27.85,27.85,0,0,0-27.85,27.45c0,.17,0,.33,0,.52v51.3c7-4.38,16.68-13.86,22.6-24.05a27.86,27.86,0,1,0,5.29-55.21Zm.13,39.88a11.91,11.91,0,1,1,11.91-11.91A11.91,11.91,0,0,1,177.55,63.36Z"/></g></g></svg>